<?xml version="1.0" encoding="utf-8"?>
<!DOCTYPE svg PUBLIC "-//W3C//DTD SVG 1.0//EN" "http://www.w3.org/TR/2001/REC-SVG-20010904/DTD/svg10.dtd">
<svg version="1.0" xmlns="http://www.w3.org/2000/svg" width="225px" height="225px" viewBox="0 0 225 225" preserveAspectRatio="xMidYMid meet">
 <g fill="#ffffff">
  <path d="M0 112.50 l0 -112.50 112.50 0 112.50 0 0 112.50 0 112.50 -112.50 0 -112.50 0 0 -112.50z m118.25 87.75 c2.50 -0.40 5.75 -1.10 7.25 -1.50 9.85 -2.85 21.20 -10.70 28.55 -19.75 3 -3.70 5.05 -6.50 4.75 -6.50 -0.15 0 -1.60 1.75 -3.20 3.90 -6.95 9.10 -16.65 16.50 -26.20 20.10 -9.60 3.55 -24.20 3.55 -33.80 0 -11.55 -4.30 -22.30 -13.50 -30.25 -25.80 -17 -26.35 -20.60 -66.50 -8.80 -98.70 1.85 -4.95 6.15 -13.55 8.95 -17.95 1.10 -1.70 1.85 -3.05 1.75 -3.05 -0.65 0 -5.70 8.40 -8.50 14.25 -5.20 10.65 -8.45 22.65 -10 36.45 -0.95 8.30 -0.95 13.30 0 21.80 3.55 32.10 18.25 57.95 40.15 70.65 1.75 1.05 3.25 1.85 3.35 1.85 0.15 0 1.40 0.55 2.85 1.20 3.30 1.50 6.05 2.25 11.15 3.05 5.40 0.85 6.75 0.85 12 0z m1.10 -9 c4.90 -1 8.80 -2.45 13.10 -4.85 5.15 -2.80 8.50 -5.45 13.55 -10.70 11.10 -11.60 18.30 -26.90 21.85 -46.45 1.25 -7.10 1.25 -26.35 0 -33.50 -3.60 -19.75 -10.85 -35 -22.25 -46.85 -8 -8.25 -16.30 -13.05 -26.25 -15.15 -13.30 -2.85 -28.05 2.80 -40.10 15.35 -11.45 11.85 -18.45 26.75 -22.10 46.65 -1.30 7.15 -1.30 26.35 0 33.50 3.55 19.55 10.80 34.90 21.85 46.45 5.20 5.40 8.50 8 14 10.95 9.05 4.85 17.95 6.40 26.35 4.60z m44 -25.75 c7 -12.40 11.05 -25.65 12.90 -42 0.95 -8.50 0.95 -13.50 0 -21.90 -1.60 -14.25 -4.60 -25.20 -10 -36.35 -11.35 -23.50 -28.20 -37.55 -48.60 -40.55 -4.60 -0.70 -5.70 -0.70 -10.30 0 -12.20 1.80 -22.10 6.95 -32.10 16.65 -1.10 1.05 -2.55 2.60 -3.25 3.40 -0.65 0.85 0.70 -0.35 3 -2.55 5.55 -5.35 8.70 -7.70 13.75 -10.45 7.90 -4.30 14.05 -5.90 23.25 -5.90 9.75 0 16.45 1.65 24.20 5.85 5.15 2.80 7.40 4.45 11.85 8.65 19.15 18.05 29.25 48.25 26.95 80.50 -1.30 19 -5.40 32.60 -14.55 48.65 -0.85 1.50 -1.10 2.20 -0.50 1.50 0.55 -0.70 2.10 -3.15 3.40 -5.50z m-93.85 -117.10 c0.95 -1.20 1.30 -1.85 0.85 -1.45 -0.95 0.75 -3.05 3.55 -2.70 3.55 0.10 0 0.95 -0.95 1.85 -2.10z"/>
  <path d="M110.35 158.15 c-1.10 -1.85 -12 -22.55 -12.10 -23 -0.05 -0.05 -5.75 0.20 -12.75 0.65 -7 0.40 -13 0.60 -13.35 0.50 -0.35 -0.15 -0.65 -1.05 -0.65 -2.05 0 -1.90 0.55 -2.85 6.75 -11.50 5.80 -8 7.40 -10.45 7.40 -10.95 0 -0.30 -3.05 -5.15 -6.80 -10.75 -5.90 -8.75 -6.85 -10.45 -6.85 -12.15 0 -1.15 0.25 -2.05 0.65 -2.20 0.40 -0.15 6.25 0.20 13.10 0.80 6.80 0.55 12.40 0.95 12.45 0.90 0.15 -0.45 3.85 -7 6.05 -10.90 1.05 -1.80 2.85 -4.95 4 -7 2.05 -3.65 2.15 -3.75 4.15 -3.90 1.95 -0.15 2.10 -0.05 3.25 2 0.65 1.20 2.60 4.60 4.35 7.55 1.70 3 3.90 6.95 4.90 8.75 0.95 1.85 1.80 3.40 1.85 3.50 0.05 0.05 5.55 -0.35 12.25 -0.90 6.65 -0.55 12.55 -0.90 13.05 -0.75 0.70 0.25 0.95 0.80 0.95 2.25 0 1.60 -1.05 3.45 -7 12.40 l-7.05 10.50 2.30 3.20 c2.15 3 4.80 6.75 9.90 13.95 2.50 3.55 3.20 6.65 1.60 7.30 -0.70 0.25 -10 -0.20 -22.50 -1.10 l-3.50 -0.25 -1.30 2.60 c-1.35 2.80 -7.85 15.25 -9.75 18.65 -0.95 1.75 -1.35 2 -3.10 2.15 -1.10 0.10 -2.10 -0.05 -2.25 -0.25z m5.15 -35.70 c1.95 -0.40 2.50 -0.75 2.50 -1.50 0 -0.60 0.35 -0.95 1 -0.95 0.55 0 1 -0.35 1 -0.75 0 -0.40 0.25 -0.75 0.50 -0.75 0.30 0 0.50 -0.45 0.50 -1 0 -0.55 0.25 -1 0.50 -1 0.30 0 0.50 -0.55 0.50 -1.25 0 -0.80 0.30 -1.25 0.80 -1.25 0.55 0 0.70 -0.25 0.50 -0.80 -0.15 -0.45 -0.45 -1.65 -0.60 -2.75 -0.20 -1.15 -0.60 -1.95 -1 -1.95 -0.40 0 -0.70 -0.45 -0.70 -1 0 -0.55 -0.20 -1 -0.50 -1 -0.25 0 -0.50 -0.35 -0.50 -0.75 0 -0.40 -0.45 -0.75 -1 -0.75 -0.55 0 -1 -0.35 -1 -0.75 0 -0.40 -0.45 -0.75 -0.95 -0.75 -0.55 0 -1.05 -0.30 -1.15 -0.60 -0.15 -0.45 -1.35 -0.65 -3.65 -0.65 -2.30 0 -3.50 0.20 -3.60 0.65 -0.15 0.30 -0.65 0.60 -1.20 0.60 -0.50 0 -0.95 0.35 -0.95 0.75 0 0.45 -0.45 0.75 -1.25 0.75 -0.80 0 -1.25 0.30 -1.25 0.75 0 0.40 -0.20 0.75 -0.50 0.75 -0.25 0 -0.50 0.45 -0.50 1 0 0.55 -0.20 1 -0.50 1 -0.25 0 -0.50 0.55 -0.50 1.20 0 0.65 -0.20 1.30 -0.50 1.40 -0.85 0.30 1.15 7.40 2.10 7.40 0.25 0 0.40 0.35 0.40 0.75 0 0.45 0.45 0.75 1.25 0.75 0.80 0 1.25 0.30 1.25 0.75 0 0.40 0.35 0.75 0.75 0.75 0.40 0 0.75 0.35 0.75 0.75 0 0.90 3.65 1 7.50 0.20z"/>
 </g>
 <g fill="#008ed3">
  <path d="M103.75 192.75 c-4.70 -1.05 -7.65 -2.15 -12.25 -4.60 -5.50 -2.95 -8.80 -5.55 -14 -10.95 -16.30 -17.05 -24.75 -43.80 -22.90 -72.75 1.40 -22.60 9.65 -42.85 23.15 -56.85 10.45 -10.90 21.70 -16.10 34.75 -16.10 12.90 0 24.30 5.25 34.60 15.90 13.50 14 21.85 34.45 23.30 57.05 1.85 28.95 -6.55 55.65 -22.90 72.75 -8.40 8.75 -16.25 13.35 -26.65 15.55 -4.15 0.90 -13 0.90 -17.10 0z m10.45 -38 c1.90 -3.45 8.45 -15.90 9.75 -18.65 l1.30 -2.65 6.25 0.30 c3.45 0.15 9.25 0.55 12.95 0.80 4.15 0.30 6.90 0.30 7.20 0 0.50 -0.50 0.40 -0.70 -12.25 -18.50 -2.85 -3.95 -3.25 -4.80 -2.50 -5.15 0.50 -0.20 14.60 -21.35 14.60 -21.90 0 -0.80 -1.50 -0.80 -11.50 0.05 -5.65 0.50 -11.25 0.90 -12.50 0.90 -2.25 0.05 -2.25 0.05 -3.75 -2.85 -0.80 -1.55 -2.95 -5.45 -4.80 -8.60 -1.80 -3.15 -3.90 -6.85 -4.65 -8.15 -0.75 -1.35 -1.60 -2.35 -1.95 -2.20 -0.30 0.10 -1.45 1.85 -2.60 3.90 -2 3.50 -4.60 8.05 -7.85 13.70 -0.80 1.40 -1.60 2.90 -1.75 3.40 -0.35 1.05 -1.60 1.10 -12.65 0.15 -13.05 -1.15 -13.75 -1.15 -13.75 -0.30 0 0.40 3.30 5.75 7.40 11.80 l7.35 11.10 -2.75 3.90 c-1.50 2.20 -4.20 6 -6 8.45 -5.65 7.90 -6.85 9.85 -6.45 10.25 0.25 0.20 5.40 0.10 11.45 -0.30 16.25 -0.95 14.80 -1.10 16.10 1.70 0.65 1.30 2.30 4.50 3.70 7.10 1.40 2.60 3.35 6.35 4.35 8.25 3.40 6.60 3.55 6.70 5.30 3.50z"/>
 </g>
 <g fill="#5eba4d">
  <path d="M104.75 201.75 c-5.10 -0.80 -7.85 -1.55 -11.15 -3.05 -1.45 -0.65 -2.70 -1.20 -2.85 -1.20 -0.10 0 -1.60 -0.80 -3.35 -1.85 -13.40 -7.80 -24.65 -21.15 -31.75 -37.65 -7.45 -17.40 -10.55 -38.65 -8.40 -57.80 1.55 -13.85 4.80 -25.80 10 -36.50 11.25 -23.25 28.15 -37.40 48.25 -40.45 5.95 -0.95 8.05 -0.95 14.05 0 20.05 3 36.90 17.15 48.20 40.50 12.20 25.25 14.05 57.05 4.90 85.50 -4.35 13.70 -12.95 27.95 -22.10 36.65 -7.25 6.90 -15.80 12.10 -23.55 14.35 -7.45 2.15 -15.05 2.65 -22.25 1.50z m15.50 -4.80 c17 -2.70 32.70 -16.20 43.10 -37.20 17.15 -34.50 12.60 -82.90 -10.35 -111 -11.50 -14.10 -25.25 -21.25 -40.75 -21.30 -5.60 0 -11.05 0.95 -15.65 2.75 -32.20 12.65 -51.40 57.70 -43.60 102.30 4.85 27.90 19.60 50.60 39.25 60.35 8.85 4.40 17.70 5.70 28 4.10z"/>
 </g>
 <g fill="#f8b617">
  <path d="M109 126.30 c0 -2.10 -0.55 -2.30 -1.50 -0.55 -1 1.85 -1.45 1.50 -1.15 -0.85 l0.25 -2.15 -1.55 1.75 c-1.65 1.90 -1.95 1.45 -0.85 -1.25 0.85 -1.95 0.40 -2.25 -0.95 -0.75 -0.90 1 -2.25 1.35 -2.25 0.55 0 -0.25 0.35 -0.70 0.75 -1.05 0.40 -0.35 0.75 -0.95 0.75 -1.35 0 -0.55 -0.35 -0.45 -1.50 0.35 -1.10 0.80 -1.50 0.90 -1.50 0.35 0 -0.40 0.45 -1.10 1 -1.60 1.35 -1.20 0.80 -1.80 -1.05 -1.15 -2.05 0.70 -2.35 0.20 -0.50 -0.90 2.05 -1.20 1.95 -1.60 -0.30 -1.80 l-1.90 -0.15 1.75 -0.95 1.75 -1 -1.65 -0.35 c-2.70 -0.55 -2.90 -1.35 -0.45 -1.55 1.80 -0.15 1.70 -0.85 -0.15 -1.55 -2.15 -0.80 -1.85 -1.55 0.50 -1.20 2.35 0.30 2.50 0 0.60 -1.45 -1.65 -1.35 -1.35 -1.85 0.80 -1.25 1.95 0.60 2 0.25 0.25 -1.55 -1.50 -1.55 -0.70 -1.95 1.25 -0.60 1.35 0.95 1.55 0 0.25 -1.40 -1.25 -1.40 -0.35 -1.70 1.35 -0.50 2 1.50 2.15 1.40 1.25 -0.75 -1 -2.35 -0.55 -2.75 1 -0.90 1.40 1.80 1.95 1.50 1.20 -0.70 -0.60 -1.70 -0.20 -2.85 0.55 -1.55 0.25 0.40 0.80 1.20 1.20 1.75 0.75 0.95 0.75 0.90 0.80 -1.15 0 -2.40 0.75 -2.45 1.25 -0.10 0.35 1.70 1.20 2 1.30 0.50 0.10 -1.80 0.20 -2 0.70 -2.10 0.30 -0.10 0.55 0.60 0.65 1.50 0.20 2 0.90 2.10 1.35 0.10 0.50 -2.35 1.25 -2.30 1.25 0.10 l0.05 2.15 1.45 -1.75 c1.45 -1.75 1.45 -1.75 1.50 -0.45 0 0.70 -0.25 1.50 -0.60 1.85 -0.30 0.30 -0.40 0.75 -0.20 0.95 0.20 0.20 1.05 -0.35 1.90 -1.25 0.80 -0.90 1.60 -1.55 1.75 -1.45 0.10 0.15 -0.25 1.20 -0.85 2.35 l-1.10 2.15 1.85 -1.15 c2.20 -1.35 2.75 -1 1.25 0.85 -1.25 1.60 -0.60 2.10 1.25 0.85 2 -1.30 2.15 -0.35 0.20 1.35 l-1.70 1.50 2.15 -0.30 c2.35 -0.35 2.80 0.25 0.85 1.15 -1.90 0.85 -1.50 1.55 0.75 1.25 2.40 -0.35 2.80 0.70 0.50 1.20 -2.25 0.45 -2.25 1 0 1.40 2.75 0.45 2.95 1.15 0.50 1.55 -2.35 0.40 -2.60 1.10 -0.50 1.50 2.45 0.50 1.80 1.40 -0.75 1.05 -2.25 -0.35 -3.15 0.30 -1.30 0.90 0.55 0.15 1.25 0.65 1.65 1.10 0.60 0.75 0.45 0.80 -1.60 0.50 l-2.25 -0.35 1.70 1.50 c2.05 1.75 1.80 2.50 -0.40 1.20 -1.95 -1.15 -2.45 -0.65 -1.05 1.15 1.20 1.50 0.55 2.25 -0.90 1.05 -1.20 -1.05 -2.30 -1.65 -2.05 -1.10 0.15 0.25 0.55 1.05 0.95 1.80 0.85 1.75 0.25 2.50 -0.80 1 -1.15 -1.65 -1.65 -1.35 -1.40 0.80 l0.25 1.85 -1.50 -1.75 c-1.60 -1.75 -1.75 -1.60 -1.55 1.20 0.10 1.80 -0.80 1.30 -1.25 -0.70 -0.45 -2 -1.15 -1.90 -1.35 0.15 -0.15 1.80 -1.05 2 -1.30 0.25 -0.30 -1.95 -1.05 -2.20 -1.40 -0.50 -0.45 2.30 -1.20 2.50 -1.20 0.40z"/>
 </g>
</svg>